<svg width="49" height="49" viewBox="0 0 49 49" fill="none" xmlns="http://www.w3.org/2000/svg">
<circle cx="24.9062" cy="24.9375" r="24" fill="#151515"/>
<path d="M23.9049 35.0885C21.5607 34.3924 19.6136 32.9725 18.0634 30.829C16.5133 28.6854 15.7383 26.27 15.7383 23.5828V17.2735L23.9049 14.2227L32.0716 17.2735V23.5828C32.0716 26.2693 31.2966 28.6843 29.7464 30.8278C28.1963 32.9714 26.2492 34.3908 23.9049 35.0885ZM23.9049 29.3228C25.2046 29.3228 26.3075 28.8702 27.2136 27.9648C28.1189 27.0579 28.5716 25.9547 28.5716 24.655C28.5716 23.3553 28.1189 22.2528 27.2136 21.3475C26.3083 20.4422 25.2054 19.9891 23.9049 19.9883C22.6045 19.9875 21.502 20.4406 20.5974 21.3475C19.6929 22.2544 19.2398 23.3569 19.2383 24.655C19.2367 25.9531 19.6898 27.056 20.5974 27.9637C21.5051 28.8713 22.6076 29.324 23.9049 29.3217M25.8299 27.2182L23.4569 24.844V21.2903H24.3541V24.4672L26.4669 26.58L25.8299 27.2182Z" fill="#00A652"/>
</svg>
