<svg width="49" height="48" viewBox="0 0 49 48" fill="none" xmlns="http://www.w3.org/2000/svg">
<circle cx="24.5" cy="24" r="24" fill="#151515"/>
<path d="M23.93 21.67C23.97 21.78 24 21.88 24 22V27.22C24 27.72 23.81 28.2 23.47 28.57L20.68 31.62L17.28 28.22L18.5 27L21.3 14.86C21.361 14.5929 21.5184 14.3576 21.7419 14.1992C21.9655 14.0408 22.2396 13.9703 22.5118 14.0013C22.784 14.0322 23.0353 14.1624 23.2176 14.3669C23.3999 14.5714 23.5004 14.836 23.5 15.11V20.07C23.337 20.0256 23.169 20.0021 23 20C21.9 20 21 20.9 21 22V25C21 25.28 21.22 25.5 21.5 25.5C21.78 25.5 22 25.28 22 25V22C22 21.45 22.45 21 23 21C23.19 21 23.35 21.07 23.5 21.16C23.62 21.23 23.71 21.32 23.8 21.42C23.83 21.46 23.86 21.5 23.88 21.55C23.9 21.59 23.92 21.63 23.93 21.67ZM14.5 31L18.5 34L19.67 32.73L16.22 29.28L14.5 31ZM30.5 27L27.7 14.86C27.639 14.5929 27.4816 14.3576 27.2581 14.1992C27.0345 14.0408 26.7604 13.9703 26.4882 14.0013C26.216 14.0322 25.9647 14.1624 25.7824 14.3669C25.6001 14.5714 25.4996 14.836 25.5 15.11V20.07C25.66 20.03 25.83 20 26 20C27.1 20 28 20.9 28 22V25C28 25.28 27.78 25.5 27.5 25.5C27.22 25.5 27 25.28 27 25V22C27 21.45 26.55 21 26 21C25.81 21 25.65 21.07 25.5 21.16C25.38 21.23 25.29 21.32 25.21 21.42C25.18 21.46 25.14 21.5 25.12 21.55C25.1 21.59 25.08 21.63 25.07 21.67C25.03 21.78 25 21.88 25 22V27.22C25 27.72 25.19 28.2 25.53 28.57L28.32 31.62L31.72 28.22L30.5 27ZM32.78 29.28L29.33 32.73L30.5 34L34.5 31L32.78 29.28Z" fill="#00985B"/>
</svg>
