<svg width="49" height="48" viewBox="0 0 49 48" fill="none" xmlns="http://www.w3.org/2000/svg">
<circle cx="24.5" cy="24" r="24" fill="#151515"/>
<path d="M32.8337 29.582C33.3592 29.582 33.8023 29.7654 34.1628 30.132C34.5234 30.4987 34.7006 30.9265 34.6945 31.4154L27.3337 34.1654L20.917 32.332V24.082H22.7045L29.3687 26.5479C29.8453 26.7373 30.0837 27.0795 30.0837 27.5745C30.0837 27.8618 29.9798 28.1123 29.772 28.3262C29.5642 28.5401 29.3015 28.6531 28.9837 28.6654H26.417L24.8128 28.0512L24.5103 28.9129L26.417 29.582H32.8337ZM29.167 16.9595C29.8148 16.2079 30.6398 15.832 31.642 15.832C32.4731 15.832 33.1759 16.1376 33.7503 16.7487C34.3248 17.3598 34.6303 18.0626 34.667 18.857C34.667 19.4865 34.3615 20.2381 33.7503 21.112C33.1392 21.9859 32.5373 22.7162 31.9445 23.3029C31.3517 23.8895 30.4259 24.7604 29.167 25.9154C27.8959 24.7604 26.9609 23.8895 26.362 23.3029C25.7631 22.7162 25.1612 21.9859 24.5562 21.112C23.9512 20.2381 23.6548 19.4865 23.667 18.857C23.667 18.0259 23.9634 17.3231 24.5562 16.7487C25.149 16.1743 25.864 15.8687 26.7012 15.832C27.679 15.832 28.5009 16.2079 29.167 16.9595ZM15.4023 24.082H19.0837V34.1654H15.4023V24.082Z" fill="#00985B"/>
</svg>
