<svg width="49" height="49" viewBox="0 0 49 49" fill="none" xmlns="http://www.w3.org/2000/svg">
<circle cx="24.5" cy="24.5" r="24" fill="#151515"/>
<path d="M18.168 34.6654V16.332H30.0846V19.9987H27.3346V27.5841L24.218 26.0258L21.193 29.0508L25.868 34.6654H18.168ZM29.1221 34.6654C28.8471 34.6654 28.5837 34.6082 28.332 34.4939C28.0802 34.3797 27.87 34.2153 27.7013 34.0008L23.668 29.1654L24.5846 28.2487L29.168 30.5404V21.832H30.0846L32.8346 24.582V31.9154C32.8346 32.6793 32.5673 33.3286 32.0326 33.8633C31.4978 34.398 30.8485 34.6654 30.0846 34.6654H29.1221ZM24.1263 20.9154C24.386 20.9154 24.6039 20.8274 24.7799 20.6514C24.9559 20.4754 25.0436 20.2578 25.043 19.9987C25.0424 19.7396 24.9544 19.522 24.779 19.346C24.6036 19.17 24.386 19.082 24.1263 19.082C23.8666 19.082 23.649 19.17 23.4736 19.346C23.2982 19.522 23.2102 19.7396 23.2096 19.9987C23.209 20.2578 23.297 20.4757 23.4736 20.6523C23.6502 20.8289 23.8678 20.9166 24.1263 20.9154Z" fill="#00985B"/>
</svg>
