<svg width="49" height="48" viewBox="0 0 49 48" fill="none" xmlns="http://www.w3.org/2000/svg">
<circle cx="24.5" cy="24" r="24" fill="#151515"/>
<mask id="mask0_2071_6" style="mask-type:luminance" maskUnits="userSpaceOnUse" x="13" y="13" width="22" height="21">
<path d="M14.8945 15.8333C14.8945 15.5792 14.9955 15.3354 15.1752 15.1557C15.3549 14.976 15.5987 14.875 15.8529 14.875H21.6029L23.9987 17.75H32.1445C32.3987 17.75 32.6425 17.851 32.8222 18.0307C33.0019 18.2104 33.1029 18.4542 33.1029 18.7083V31.1667C33.1029 31.4208 33.0019 31.6646 32.8222 31.8443C32.6425 32.024 32.3987 32.125 32.1445 32.125H15.8529C15.5987 32.125 15.3549 32.024 15.1752 31.8443C14.9955 31.6646 14.8945 31.4208 14.8945 31.1667V15.8333Z" fill="white" stroke="white" stroke-width="2" stroke-linejoin="round"/>
<path d="M21.9862 22.0625H26.0112L27.3529 23.754L23.9987 27.8125L20.6445 23.754L21.9862 22.0625Z" fill="black" stroke="black" stroke-width="2" stroke-linecap="round" stroke-linejoin="round"/>
</mask>
<g mask="url(#mask0_2071_6)">
<path d="M12.5 12H35.5V35H12.5V12Z" fill="#00A652"/>
</g>
</svg>
