<svg width="49" height="48" viewBox="0 0 49 48" fill="none" xmlns="http://www.w3.org/2000/svg">
<circle cx="24.25" cy="24" r="24" fill="#151515"/>
<g clip-path="url(#clip0_2071_10)">
<path d="M19.75 23C19.3359 22.4492 18.5508 22.3359 18 22.75C17.4492 23.1641 17.3359 23.9492 17.75 24.5L19.2383 26.4844C19.4258 26.7344 19.3984 27.082 19.1797 27.3008L18.6797 27.8008C18.418 28.0625 17.9922 28.043 17.7578 27.7578L14.25 23.5469V17.75C14.25 17.0586 13.6914 16.5 13 16.5C12.3086 16.5 11.75 17.0586 11.75 17.75V26.2812C11.75 26.707 11.8945 27.1211 12.1602 27.4531L16.2266 32.6992C16.4219 32.9531 16.5547 33.2422 16.6328 33.5469C16.7031 33.8164 16.9492 34 17.2305 34H22.375C22.7188 34 23 33.7188 23 33.375V29C23 27.918 22.6484 26.8672 22 26L19.75 23ZM35.5 16.5C34.8086 16.5 34.25 17.0586 34.25 17.75V23.5469L30.7422 27.7578C30.5078 28.0391 30.0781 28.0586 29.8203 27.8008L29.3203 27.3008C29.1016 27.082 29.0742 26.7344 29.2617 26.4844L30.75 24.5C31.1641 23.9492 31.0508 23.1641 30.5 22.75C29.9492 22.3359 29.1641 22.4492 28.75 23L26.5 26C25.8516 26.8672 25.5 27.918 25.5 29V33.375C25.5 33.7188 25.7812 34 26.125 34H31.2695C31.5469 34 31.7969 33.8164 31.8672 33.5469C31.9453 33.2422 32.0781 32.9531 32.2734 32.6992L36.3398 27.4531C36.6055 27.1211 36.75 26.707 36.75 26.2812V17.75C36.75 17.0586 36.1914 16.5 35.5 16.5Z" fill="#00A652"/>
</g>
<defs>
<clipPath id="clip0_2071_10">
<rect width="25" height="20" fill="white" transform="translate(11.75 14)"/>
</clipPath>
</defs>
</svg>
