<svg width="49" height="48" viewBox="0 0 49 48" fill="none" xmlns="http://www.w3.org/2000/svg">
<circle cx="24.75" cy="24" r="24" fill="#151515"/>
<path d="M17.75 17.5C17.75 17.1022 17.908 16.7206 18.1893 16.4393C18.4706 16.158 18.8522 16 19.25 16H26.129C26.5267 16.0004 26.908 16.1586 27.189 16.44L31.311 20.56C31.4504 20.6995 31.5609 20.8651 31.6362 21.0473C31.7116 21.2295 31.7502 21.4248 31.75 21.622V30.5C31.75 30.8978 31.592 31.2794 31.3107 31.5607C31.0294 31.842 30.6478 32 30.25 32H19.25C18.8522 32 18.4706 31.842 18.1893 31.5607C17.908 31.2794 17.75 30.8978 17.75 30.5V17.5Z" fill="#00A652"/>
</svg>
