<svg width="49" height="48" viewBox="0 0 49 48" fill="none" xmlns="http://www.w3.org/2000/svg">
<circle cx="24.5" cy="24" r="24" fill="#151515"/>
<path fill-rule="evenodd" clip-rule="evenodd" d="M29.0093 14.3245C29.4241 13.5663 30.5134 13.5663 30.9282 14.3245L31.7997 15.9179C31.9804 16.2483 32.252 16.5199 32.5824 16.7006L34.1758 17.5721C34.9339 17.9868 34.9339 19.0762 34.1758 19.4909L32.5824 20.3624C32.252 20.5431 31.9804 20.8147 31.7997 21.1451L30.9282 22.7385C30.5134 23.4967 29.4241 23.4967 29.0093 22.7385L28.1378 21.1451C27.9571 20.8147 27.6855 20.5431 27.3551 20.3624L25.7618 19.4909C25.0036 19.0762 25.0036 17.9868 25.7618 17.5721L27.3551 16.7006C27.6855 16.5199 27.9571 16.2483 28.1378 15.9179L29.0093 14.3245ZM26.4237 15.714L25.1322 16.4206C23.4631 17.3332 23.4631 19.7298 25.1322 20.6424L26.7256 21.5139C26.8356 21.5741 26.9261 21.6646 26.9863 21.7747L27.8578 23.3681C28.3522 24.2724 29.2823 24.6867 30.1766 24.6106C29.7479 26.3621 28.7466 27.9204 27.3315 29.0381C27.258 29.2998 27.1813 29.5605 27.1014 29.8203C26.8958 30.4914 26.3248 31.0055 25.5911 31.0821C24.9554 31.1481 23.9046 31.219 22.3125 31.219C20.7204 31.219 19.6696 31.1481 19.0339 31.0821C18.3002 31.0055 17.7297 30.4914 17.5236 29.8203C17.4437 29.5605 17.367 29.2998 17.2935 29.0381C15.4219 27.5567 14.2188 25.2624 14.2188 22.6877C14.2188 18.2178 17.8426 14.594 22.3125 14.594C23.8131 14.594 25.2188 15.0026 26.4237 15.714ZM18.5706 32.1115C18.6843 32.1377 18.8007 32.1571 18.9197 32.1697C19.5987 32.2406 20.6881 32.3127 22.3121 32.3127C23.9361 32.3127 25.025 32.2406 25.7044 32.1697C25.8601 32.1535 26.0142 32.1247 26.1651 32.0835L26.1511 32.2147C26.0483 33.1619 25.3693 34.0203 24.3298 34.1572C23.6606 34.2418 22.9866 34.2833 22.3121 34.2815C21.4502 34.2815 20.7813 34.2194 20.2899 34.145C19.3856 34.0081 18.7902 33.2897 18.6393 32.4838C18.6174 32.3674 18.5945 32.243 18.5706 32.1115Z" fill="#00A652"/>
</svg>
