<svg width="49" height="48" viewBox="0 0 49 48" fill="none" xmlns="http://www.w3.org/2000/svg">
<circle cx="24.5" cy="24" r="24" fill="#151515"/>
<path d="M21.375 21.5977L24.5 20.4258L27.625 21.5977V24.0299C27.625 24.6102 27.4634 25.179 27.1584 25.6726C26.8533 26.1662 26.4169 26.5652 25.8979 26.8247L24.5 27.5237L23.1021 26.8258C22.5828 26.5661 22.1461 26.1668 21.8411 25.6728C21.536 25.1788 21.3746 24.6095 21.375 24.0289V21.5977Z" fill="#00A652"/>
<path fill-rule="evenodd" clip-rule="evenodd" d="M25.2312 13.7868C24.7598 13.6101 24.2402 13.6101 23.7688 13.7868L16.4771 16.5212C16.0799 16.6701 15.7376 16.9367 15.496 17.2853C15.2544 17.634 15.1249 18.0481 15.125 18.4723V24.0587C15.125 25.7998 15.6098 27.5065 16.5251 28.9875C17.4404 30.4686 18.75 31.6655 20.3073 32.4441L23.801 34.19C24.0181 34.2985 24.2574 34.355 24.5 34.355C24.7426 34.355 24.9819 34.2985 25.199 34.19L28.6927 32.4431C30.25 31.6645 31.5596 30.4675 32.4749 28.9865C33.3902 27.5054 33.875 25.7988 33.875 24.0577V18.4733C33.8751 18.0491 33.7456 17.635 33.504 17.2864C33.2624 16.9377 32.9201 16.6712 32.5229 16.5223L25.2312 13.7868ZM25.049 18.4066C24.695 18.2738 24.305 18.2738 23.951 18.4066L20.3052 19.7733C20.0074 19.8851 19.7507 20.0851 19.5696 20.3466C19.3885 20.6081 19.2915 20.9187 19.2917 21.2368V24.0285C19.2915 24.9959 19.5608 25.9443 20.0693 26.7672C20.5779 27.5902 21.3055 28.2553 22.1708 28.6879L23.9177 29.5608C24.0985 29.6512 24.2979 29.6983 24.5 29.6983C24.7021 29.6983 24.9015 29.6512 25.0823 29.5608L26.8292 28.6879C27.6943 28.2553 28.4219 27.5904 28.9304 26.7677C29.4389 25.9449 29.7083 24.9968 29.7083 24.0296V21.2368C29.7085 20.9187 29.6115 20.6081 29.4304 20.3466C29.2493 20.0851 28.9926 19.8851 28.6948 19.7733L25.049 18.4066Z" fill="#00A652"/>
</svg>
