<svg width="49" height="48" viewBox="0 0 49 48" fill="none" xmlns="http://www.w3.org/2000/svg">
<circle cx="24.5" cy="24" r="24" fill="#151515"/>
<g clip-path="url(#clip0_2071_7)">
<path d="M29.3124 27.6861L31.2387 25.7598C31.8034 25.2032 32.2524 24.5403 32.5598 23.8093C32.8672 23.0784 33.0269 22.2938 33.0297 21.5009C33.0326 20.7079 32.8785 19.9223 32.5764 19.1891C32.2742 18.456 31.83 17.7899 31.2693 17.2292C30.7086 16.6685 30.0425 16.2243 29.3094 15.9222C28.5762 15.62 27.7906 15.4659 26.9976 15.4688C26.2047 15.4716 25.4201 15.6314 24.6892 15.9387C23.9583 16.2461 23.2954 16.6951 22.7387 17.2598L20.8124 19.1861L29.3124 27.6861ZM28.1861 28.8124L19.6861 20.3124L17.7598 22.2387C17.1951 22.7954 16.7461 23.4583 16.4387 24.1892C16.1314 24.9201 15.9716 25.7047 15.9688 26.4976C15.9659 27.2906 16.12 28.0762 16.4222 28.8094C16.7243 29.5425 17.1685 30.2086 17.7292 30.7693C18.2899 31.33 18.956 31.7742 19.6891 32.0764C20.4223 32.3785 21.2079 32.5326 22.0009 32.5297C22.7938 32.5269 23.5784 32.3672 24.3093 32.0598C25.0403 31.7524 25.7032 31.3034 26.2598 30.7387L28.1861 28.8124Z" fill="#00A652"/>
</g>
<defs>
<clipPath id="clip0_2071_7">
<rect width="17" height="17" fill="white" transform="translate(16 15.5)"/>
</clipPath>
</defs>
</svg>
