<svg width="49" height="48" viewBox="0 0 49 48" fill="none" xmlns="http://www.w3.org/2000/svg">
<circle cx="24.5" cy="24" r="24" fill="#151515"/>
<g clip-path="url(#clip0_2071_8)">
<path d="M15.1256 15.875C15.1256 15.3777 15.3231 14.9008 15.6748 14.5492C16.0264 14.1975 16.5033 14 17.0006 14C17.4979 14 17.9748 14.1975 18.3264 14.5492C18.678 14.9008 18.8756 15.3777 18.8756 15.875C18.8756 16.3723 18.678 16.8492 18.3264 17.2008C17.9748 17.5525 17.4979 17.75 17.0006 17.75C16.5033 17.75 16.0264 17.5525 15.6748 17.2008C15.3231 16.8492 15.1256 16.3723 15.1256 15.875ZM17.6256 23.4414V25.9844L19.6178 27.9766C19.8951 28.2539 20.0787 28.6094 20.1412 28.9961L20.735 32.5469C20.8482 33.2266 20.3873 33.8711 19.7076 33.9844C19.0279 34.0977 18.3834 33.6367 18.2701 32.957L17.7115 29.6016L14.61 26.5C14.1412 26.0312 13.8756 25.3945 13.8756 24.7305V21.2891C13.8756 20.0234 14.899 19 16.1646 19C17.1061 19 17.9811 19.4688 18.5045 20.25L20.3561 23.0273L20.7506 23.2227V20.2461C20.7506 19.5547 21.3092 18.9961 22.0006 18.9961H27.0006C27.692 18.9961 28.2506 19.5547 28.2506 20.2461V23.2227L28.6451 23.0273L30.4967 20.25C31.0162 19.4688 31.8951 19 32.8365 19C34.1021 19 35.1256 20.0234 35.1256 21.2891V24.7305C35.1256 25.3945 34.8639 26.0312 34.3951 26.5L31.2936 29.6016L30.735 32.957C30.6217 33.6367 29.9771 34.0977 29.2975 33.9844C28.6178 33.8711 28.1568 33.2266 28.2701 32.5469L28.8639 28.9961C28.9264 28.6094 29.11 28.2539 29.3873 27.9766L31.3795 25.9844V23.4414L30.6373 24.5547C30.4576 24.8281 30.2076 25.0469 29.9146 25.1914L27.5865 26.3555C27.4928 26.4062 27.3951 26.4414 27.2896 26.4648C27.1881 26.4883 27.0826 26.5 26.9811 26.4961H22.0318C21.9342 26.5 21.8365 26.4883 21.7389 26.4688C21.6256 26.4453 21.5201 26.4062 21.4225 26.3516L19.0982 25.1875C18.8053 25.043 18.5592 24.8203 18.3756 24.5508L17.6334 23.4375L17.6256 23.4414ZM12.0904 32.2852L13.9576 27.6172L15.8795 29.5391L14.4107 33.2109C14.1529 33.8516 13.4264 34.1641 12.7857 33.9062C12.1451 33.6484 11.8326 32.9258 12.0904 32.2852ZM32.0006 14C32.4979 14 32.9748 14.1975 33.3264 14.5492C33.678 14.9008 33.8756 15.3777 33.8756 15.875C33.8756 16.3723 33.678 16.8492 33.3264 17.2008C32.9748 17.5525 32.4979 17.75 32.0006 17.75C31.5033 17.75 31.0264 17.5525 30.6748 17.2008C30.3231 16.8492 30.1256 16.3723 30.1256 15.875C30.1256 15.3777 30.3231 14.9008 30.6748 14.5492C31.0264 14.1975 31.5033 14 32.0006 14ZM35.0436 27.6172L36.9107 32.2852C37.1686 32.9258 36.8561 33.6523 36.2154 33.9102C35.5748 34.168 34.8482 33.8555 34.5904 33.2148L33.1217 29.543L35.0436 27.6211V27.6172Z" fill="#00A652"/>
</g>
<defs>
<clipPath id="clip0_2071_8">
<rect width="25" height="20" fill="white" transform="translate(12 14)"/>
</clipPath>
</defs>
</svg>
