<svg width="1440" height="1148" viewBox="0 0 1440 1148" fill="none" xmlns="http://www.w3.org/2000/svg">
<g filter="url(#filter0_f_2043_3)">
<path fill-rule="evenodd" clip-rule="evenodd" d="M-2.28419 602.884C9.95578 566.265 11.664 527.881 32.4942 495.371C54.4315 461.134 82.1824 430.932 118.979 413.627C159.461 394.59 207.597 375.489 248.396 393.837C288.735 411.979 300.129 462.545 317.857 503.068C331.856 535.065 332.223 568.802 339.852 602.884C350.458 650.264 386.672 695.443 371.221 741.471C354.671 790.775 308.88 829.893 258.864 844.147C209.495 858.217 161.703 825.669 111.382 815.522C51.9165 803.532 -33.832 832.861 -62.4296 779.362C-92.463 723.178 -22.4802 663.306 -2.28419 602.884Z" fill="url(#paint0_linear_2043_3)" fill-opacity="0.2"/>
</g>
<g filter="url(#filter1_f_2043_3)">
<path fill-rule="evenodd" clip-rule="evenodd" d="M1137.43 330.428C1176.23 332.789 1213.99 324.45 1251.03 336.233C1290.03 348.643 1326.62 367.757 1353.04 399.026C1382.09 433.426 1413.2 475.252 1405.99 519.7C1398.86 563.648 1352.67 587.9 1317.89 615.695C1290.42 637.641 1257.72 646.788 1226.57 663.085C1183.26 685.74 1148.77 732.722 1099.99 729.69C1047.74 726.443 997.778 692.112 970.889 647.195C944.347 602.86 963.542 547.913 960.298 496.342C956.464 435.401 905.608 359.669 950.174 317.926C996.977 274.088 1073.42 326.533 1137.43 330.428Z" fill="url(#paint1_linear_2043_3)" fill-opacity="0.2"/>
</g>
<defs>
<filter id="filter0_f_2043_3" x="-369.812" y="86.4062" width="1044.81" height="1061.21" filterUnits="userSpaceOnUse" color-interpolation-filters="sRGB">
<feFlood flood-opacity="0" result="BackgroundImageFix"/>
<feBlend mode="normal" in="SourceGraphic" in2="BackgroundImageFix" result="shape"/>
<feGaussianBlur stdDeviation="150" result="effect1_foregroundBlur_2043_3"/>
</filter>
<filter id="filter1_f_2043_3" x="631.98" y="0.546875" width="1075.07" height="1029.28" filterUnits="userSpaceOnUse" color-interpolation-filters="sRGB">
<feFlood flood-opacity="0" result="BackgroundImageFix"/>
<feBlend mode="normal" in="SourceGraphic" in2="BackgroundImageFix" result="shape"/>
<feGaussianBlur stdDeviation="150" result="effect1_foregroundBlur_2043_3"/>
</filter>
<linearGradient id="paint0_linear_2043_3" x1="-69.8125" y1="617.014" x2="375.002" y2="617.014" gradientUnits="userSpaceOnUse">
<stop stop-color="#00985B"/>
<stop offset="1" stop-color="#0E1512"/>
</linearGradient>
<linearGradient id="paint1_linear_2043_3" x1="1106.1" y1="268.452" x2="1221.99" y2="700.942" gradientUnits="userSpaceOnUse">
<stop stop-color="#00985B"/>
<stop offset="1" stop-color="#0E1512"/>
</linearGradient>
</defs>
</svg>
