<svg width="47" height="47" viewBox="0 0 47 47" fill="none" xmlns="http://www.w3.org/2000/svg">
<circle cx="23.6719" cy="23.0547" r="23" fill="#151515"/>
<g clip-path="url(#clip0_40_2974)">
<path d="M28.6719 29.3047H18.6719V31.1797C18.6719 31.677 18.4743 32.1539 18.1227 32.5055C17.7711 32.8571 17.2942 33.0547 16.7969 33.0547C16.2996 33.0547 15.8227 32.8571 15.4711 32.5055C15.1194 32.1539 14.9219 31.677 14.9219 31.1797V29.1984C14.5562 29.0691 14.2395 28.8296 14.0157 28.5128C13.7918 28.196 13.6717 27.8176 13.6719 27.4297V21.1797C13.6717 20.7595 13.8127 20.3514 14.0722 20.0209C14.3318 19.6904 14.6948 19.4566 15.1031 19.3572L17.4656 13.4472C17.5121 13.3311 17.5924 13.2317 17.696 13.1617C17.7996 13.0918 17.9218 13.0545 18.0469 13.0547H29.2969C29.4217 13.0547 29.5436 13.0921 29.647 13.1621C29.7504 13.232 29.8304 13.3313 29.8769 13.4472L32.2406 19.3572C32.6489 19.4566 33.012 19.6904 33.2715 20.0209C33.531 20.3514 33.672 20.7595 33.6719 21.1797V27.4297C33.6721 27.8176 33.552 28.196 33.3281 28.5128C33.1042 28.8296 32.7876 29.0691 32.4219 29.1984V31.1797C32.4219 31.677 32.2243 32.1539 31.8727 32.5055C31.5211 32.8571 31.0442 33.0547 30.5469 33.0547C30.0496 33.0547 29.5727 32.8571 29.221 32.5055C28.8694 32.1539 28.6719 31.677 28.6719 31.1797V29.3047ZM19.9219 24.3047C19.9219 23.9732 19.7902 23.6552 19.5558 23.4208C19.3213 23.1864 19.0034 23.0547 18.6719 23.0547C18.3404 23.0547 18.0224 23.1864 17.788 23.4208C17.5536 23.6552 17.4219 23.9732 17.4219 24.3047C17.4219 24.6362 17.5536 24.9542 17.788 25.1886C18.0224 25.423 18.3404 25.5547 18.6719 25.5547C19.0034 25.5547 19.3213 25.423 19.5558 25.1886C19.7902 24.9542 19.9219 24.6362 19.9219 24.3047ZM28.6719 23.0547C28.3404 23.0547 28.0224 23.1864 27.788 23.4208C27.5536 23.6552 27.4219 23.9732 27.4219 24.3047C27.4219 24.6362 27.5536 24.9542 27.788 25.1886C28.0224 25.423 28.3404 25.5547 28.6719 25.5547C29.0034 25.5547 29.3213 25.423 29.5558 25.1886C29.7902 24.9542 29.9219 24.6362 29.9219 24.3047C29.9219 23.9732 29.7902 23.6552 29.5558 23.4208C29.3213 23.1864 29.0034 23.0547 28.6719 23.0547ZM16.4706 19.3047H30.8719L28.8719 14.3047H18.4719L16.4706 19.3047Z" fill="#00A652"/>
</g>
<defs>
<clipPath id="clip0_40_2974">
<rect width="20" height="20" fill="white" transform="translate(13.6719 13.0547)"/>
</clipPath>
</defs>
</svg>
