<svg width="47" height="47" viewBox="0 0 47 47" fill="none" xmlns="http://www.w3.org/2000/svg">
<circle cx="23.6719" cy="23.0547" r="23" fill="#151515"/>
<g clip-path="url(#clip0_40_2929)">
<path d="M22.1719 32.0555H29.6719C31.4719 32.0555 32.3269 29.0555 32.6719 21.9305C32.6739 21.6863 32.6277 21.444 32.536 21.2176C32.4444 20.9912 32.309 20.785 32.1377 20.6109C31.9664 20.4368 31.7624 20.2981 31.5375 20.2028C31.3126 20.1076 31.0711 20.0575 30.8269 20.0555H26.6719V16.3055C26.6802 16.0078 26.6276 15.7115 26.5175 15.4348C26.4073 15.1581 26.2419 14.9067 26.0313 14.6961C25.8207 14.4855 25.5693 14.3201 25.2926 14.2099C25.0159 14.0998 24.7196 14.0473 24.4219 14.0555C24.1242 14.0473 23.8279 14.0998 23.5511 14.2099C23.2744 14.3201 23.0231 14.4855 22.8125 14.6961C22.6019 14.9067 22.4364 15.1581 22.3263 15.4348C22.2161 15.7115 22.1636 16.0078 22.1719 16.3055C22.1719 19.4255 21.0769 20.1455 21.0619 20.1455C20.9474 20.2148 20.8519 20.3113 20.7839 20.4265C20.7158 20.5416 20.6773 20.6719 20.6719 20.8055V30.5555C20.6719 30.9534 20.8299 31.3349 21.1112 31.6162C21.3925 31.8975 21.7741 32.0555 22.1719 32.0555Z" fill="#00A652"/>
<path d="M17.6719 20.0547H16.1719C15.3434 20.0547 14.6719 20.7263 14.6719 21.5547V30.5547C14.6719 31.3831 15.3434 32.0547 16.1719 32.0547H17.6719C18.5003 32.0547 19.1719 31.3831 19.1719 30.5547V21.5547C19.1719 20.7263 18.5003 20.0547 17.6719 20.0547Z" fill="#00A652"/>
</g>
<defs>
<clipPath id="clip0_40_2929">
<rect width="18" height="18" fill="white" transform="translate(14.6719 14.0547)"/>
</clipPath>
</defs>
</svg>
