<svg width="47" height="47" viewBox="0 0 47 47" fill="none" xmlns="http://www.w3.org/2000/svg">
<circle cx="23.6719" cy="23.0547" r="23" fill="#151515"/>
<g clip-path="url(#clip0_40_2947)">
<path d="M23.6719 13.5547C18.435 13.5547 14.1719 17.8178 14.1719 23.0547C14.1719 28.2916 18.435 32.5547 23.6719 32.5547C28.9087 32.5547 33.1719 28.2916 33.1719 23.0547C33.1719 17.8178 28.9087 13.5547 23.6719 13.5547ZM27.2344 24.2422H23.0781C22.7456 24.2422 22.4844 23.9809 22.4844 23.6484V17.1172C22.4844 16.7847 22.7456 16.5234 23.0781 16.5234C23.4106 16.5234 23.6719 16.7847 23.6719 17.1172V23.0547H27.2344C27.5669 23.0547 27.8281 23.3159 27.8281 23.6484C27.8281 23.9809 27.5669 24.2422 27.2344 24.2422Z" fill="#00A652"/>
</g>
<defs>
<clipPath id="clip0_40_2947">
<rect width="19" height="19" fill="white" transform="translate(14.1719 13.5547)"/>
</clipPath>
</defs>
</svg>
