<svg width="38" height="38" viewBox="0 0 38 38" fill="none" xmlns="http://www.w3.org/2000/svg">
<circle cx="19" cy="19" r="19" fill="#151515"/>
<path d="M12 10.9C12 10.6613 12.0922 10.4324 12.2563 10.2636C12.4204 10.0948 12.6429 10 12.875 10H25.125C25.3571 10 25.5796 10.0948 25.7437 10.2636C25.9078 10.4324 26 10.6613 26 10.9V27.1C26 27.3387 25.9078 27.5676 25.7437 27.7364C25.5796 27.9052 25.3571 28 25.125 28H22.5C22.2679 28 22.0454 27.9052 21.8813 27.7364C21.7172 27.5676 21.625 27.3387 21.625 27.1V23.5C21.625 23.2613 21.5328 23.0324 21.3687 22.8636C21.2046 22.6948 20.9821 22.6 20.75 22.6H17.25C17.0179 22.6 16.7954 22.6948 16.6313 22.8636C16.4672 23.0324 16.375 23.2613 16.375 23.5V27.1C16.375 27.3387 16.2828 27.5676 16.1187 27.7364C15.9546 27.9052 15.7321 28 15.5 28H12.875C12.6429 28 12.4204 27.9052 12.2563 27.7364C12.0922 27.5676 12 27.3387 12 27.1V10.9ZM15.5 12.7V15.4H18.125V12.7H15.5ZM15.5 17.2V19.9H18.125V17.2H15.5ZM19.875 12.7V15.4H22.5V12.7H19.875ZM19.875 17.2V19.9H22.5V17.2H19.875Z" fill="#00A652"/>
</svg>
