<svg width="48" height="48" viewBox="0 0 48 48" fill="none" xmlns="http://www.w3.org/2000/svg">
<circle cx="24" cy="24" r="24" fill="#151515"/>
<path d="M24.9049 14.293C19.7053 14.2987 15.4943 18.5156 15.5 23.7118C15.5013 25.2887 15.8996 26.8399 16.6581 28.2226L15.9362 32.6559L20.3724 31.9345C24.9268 34.431 30.6449 32.7656 33.1431 28.2138C35.6412 23.662 33.9752 17.9485 29.4204 15.4516C28.0365 14.6929 26.4834 14.2945 24.9049 14.293ZM20.2018 18.5645H22.7656C22.8816 18.5645 22.9929 18.6106 23.0749 18.6926C23.157 18.7746 23.2031 18.8858 23.2031 19.0017C23.1887 19.5848 23.2867 20.1652 23.4918 20.7113C23.5801 20.894 23.5995 21.1025 23.5465 21.2985C23.4935 21.4944 23.3715 21.6647 23.2031 21.7781L22.3062 22.6525C22.7039 23.4285 23.2238 24.1357 23.8462 24.7467C24.4527 25.3788 25.1574 25.9088 25.9331 26.3163L26.8081 25.42C27.2456 24.9828 27.4468 24.9828 27.8756 25.1315C28.422 25.3364 29.0027 25.4344 29.5862 25.42C29.7005 25.4254 29.8087 25.4731 29.8896 25.554C29.9706 25.6349 30.0184 25.743 30.0237 25.8572V28.4193C30.0184 28.5336 29.9706 28.6417 29.8896 28.7226C29.8087 28.8034 29.7005 28.8512 29.5862 28.8565C27.0126 28.7445 24.5732 27.6783 22.7437 25.866C20.9274 24.0396 19.86 21.6006 19.7512 19.028C19.7522 18.9076 19.7996 18.7923 19.8836 18.706C19.9675 18.6197 20.0815 18.569 20.2018 18.5645Z" fill="#00A652"/>
</svg>
