<svg width="48" height="48" viewBox="0 0 48 48" fill="none" xmlns="http://www.w3.org/2000/svg">
<circle cx="24" cy="24" r="24" fill="#151515"/>
<path d="M31.3002 17.6715C31.3167 17.5724 31.307 17.4708 31.2721 17.3766C31.2372 17.2824 31.1783 17.1989 31.1013 17.1344C31.0242 17.07 30.9317 17.0268 30.8328 17.009C30.7339 16.9913 30.6321 16.9997 30.5375 17.0334L14.3832 22.8028C14.2767 22.8408 14.1837 22.9092 14.1158 22.9996C14.0478 23.09 14.008 23.1983 14.0011 23.3111C13.9942 23.424 14.0206 23.5364 14.077 23.6343C14.1335 23.7323 14.2175 23.8115 14.3185 23.8621L18.9341 26.1699C19.025 26.2154 19.1264 26.2361 19.2279 26.2298C19.3294 26.2235 19.4275 26.1905 19.5122 26.1341L23.343 23.5794L21.0503 26.448C21.0004 26.5104 20.964 26.5825 20.9435 26.6597C20.9229 26.737 20.9186 26.8176 20.9309 26.8966C20.9431 26.9756 20.9717 27.0512 21.0147 27.1185C21.0577 27.1859 21.1142 27.2436 21.1807 27.288L28.1039 31.9035C28.1841 31.9568 28.2764 31.9892 28.3722 31.9977C28.4681 32.0063 28.5646 31.9907 28.653 31.9524C28.7413 31.914 28.8186 31.8542 28.8779 31.7784C28.9372 31.7025 28.9766 31.6131 28.9924 31.5181L31.3002 17.6715Z" fill="#00A652"/>
</svg>
