<svg width="39" height="39" viewBox="0 0 39 39" fill="none" xmlns="http://www.w3.org/2000/svg">
<circle cx="19.3828" cy="19.957" r="19" fill="#151515"/>
<g clip-path="url(#clip0_40_2658)">
<path d="M19.3828 19.957C21.8681 19.957 23.8828 17.9423 23.8828 15.457C23.8828 12.9717 21.8681 10.957 19.3828 10.957C16.8975 10.957 14.8828 12.9717 14.8828 15.457C14.8828 17.9423 16.8975 19.957 19.3828 19.957Z" fill="#00A652"/>
<path d="M19.3822 21.4572C17.5351 21.4447 15.7483 22.1144 14.3643 23.3378C12.9803 24.5613 12.0965 26.2524 11.8822 28.0872C11.8673 28.1949 11.8755 28.3045 11.9063 28.4087C11.937 28.5129 11.9896 28.6094 12.0606 28.6917C12.1315 28.7741 12.2192 28.8403 12.3178 28.8861C12.4164 28.9319 12.5236 28.9561 12.6322 28.9572H26.0422C26.1509 28.9561 26.2581 28.9319 26.3567 28.8861C26.4553 28.8403 26.5429 28.7741 26.6139 28.6917C26.6849 28.6094 26.7375 28.5129 26.7682 28.4087C26.799 28.3045 26.8072 28.1949 26.7922 28.0872C26.5798 26.2679 25.7089 24.5892 24.3438 23.3678C22.9788 22.1464 21.2139 21.4668 19.3822 21.4572Z" fill="#00A652"/>
</g>
<defs>
<clipPath id="clip0_40_2658">
<rect x="10.3828" y="10.957" width="18" height="18" rx="9" fill="white"/>
</clipPath>
</defs>
</svg>
