<svg width="39" height="39" viewBox="0 0 39 39" fill="none" xmlns="http://www.w3.org/2000/svg">
<circle cx="19.3828" cy="19.957" r="19" fill="#151515"/>
<g clip-path="url(#clip0_40_2670)">
<path d="M21.6317 22.866L23.0863 21.4114C23.2973 21.2005 23.5833 21.082 23.8817 21.082C24.18 21.082 24.4661 21.2005 24.677 21.4114L28.052 24.7864C28.2629 24.9974 28.3814 25.2835 28.3814 25.5818C28.3814 25.8801 28.2629 26.1662 28.052 26.3772L26.666 27.7632C26.3004 28.1288 25.8663 28.4189 25.3886 28.6168C24.9108 28.8147 24.3988 28.9166 23.8817 28.9166C23.3645 28.9166 22.8525 28.8147 22.3748 28.6168C21.897 28.4189 21.4629 28.1288 21.0973 27.7632L11.5753 18.2412C11.2096 17.8755 10.9195 17.4414 10.7216 16.9637C10.5237 16.486 10.4219 15.9739 10.4219 15.4568C10.4219 14.9397 10.5237 14.4276 10.7216 13.9499C10.9195 13.4721 11.2096 13.0381 11.5753 12.6724L12.9613 11.2864C13.1723 11.0755 13.4583 10.957 13.7567 10.957C14.055 10.957 14.3411 11.0755 14.552 11.2864L17.927 14.6614C18.1379 14.8724 18.2564 15.1585 18.2564 15.4568C18.2564 15.7551 18.1379 16.0412 17.927 16.2522L16.4724 17.7068L21.6317 22.866Z" fill="#00A652"/>
</g>
<defs>
<clipPath id="clip0_40_2670">
<rect x="10.3828" y="10.957" width="18" height="18" rx="9" fill="white"/>
</clipPath>
</defs>
</svg>
