<svg width="36" height="37" viewBox="0 0 36 37" fill="none" xmlns="http://www.w3.org/2000/svg">
<circle cx="18" cy="18.2578" r="18" fill="white"/>
<path d="M17.9976 8.10156C19.9785 8.10158 21.8814 8.87345 23.3026 10.2534C24.7237 11.6333 25.5513 13.5127 25.6096 15.4927L25.613 15.7169C26.2862 15.7169 26.9319 15.9844 27.4079 16.4604C27.884 16.9365 28.1514 17.5822 28.1514 18.2554V19.9477C28.1514 20.621 27.884 21.2666 27.4079 21.7427C26.9319 22.2187 26.2862 22.4862 25.613 22.4862L25.3676 22.487C25.0333 23.6042 24.3771 24.5981 23.4811 25.3444C22.585 26.0907 21.4888 26.5564 20.3296 26.6831C20.149 27.0128 19.8639 27.273 19.5191 27.4228C19.1743 27.5725 18.7895 27.6033 18.4253 27.5102C18.0611 27.4171 17.7383 27.2055 17.5076 26.9086C17.277 26.6118 17.1517 26.2467 17.1514 25.8708C17.1512 25.5023 17.2713 25.1437 17.4934 24.8497C17.7155 24.5556 18.0275 24.3421 18.3821 24.2416C18.7366 24.141 19.1143 24.159 19.4577 24.2927C19.8011 24.4264 20.0915 24.6685 20.2848 24.9823C21.0116 24.8793 21.6992 24.5889 22.2799 24.1397C22.8605 23.6905 23.3143 23.0979 23.5966 22.4202C23.442 22.3567 23.3097 22.2486 23.2167 22.1096C23.1238 21.9707 23.0743 21.8072 23.0745 21.64V16.5631C23.0745 16.3387 23.1637 16.1235 23.3224 15.9648C23.481 15.8061 23.6963 15.7169 23.9207 15.7169C23.9214 14.1631 23.3116 12.6713 22.2226 11.5629C21.1336 10.4545 19.6527 9.81849 18.0991 9.79185C16.5456 9.76521 15.0437 10.3501 13.9174 11.4205C12.7911 12.4908 12.1304 13.9609 12.0779 15.5139L12.0745 15.7169C12.2989 15.7169 12.5142 15.8061 12.6728 15.9648C12.8315 16.1235 12.9207 16.3387 12.9207 16.5631V21.64C12.9207 21.8644 12.8315 22.0797 12.6728 22.2383C12.5142 22.397 12.2989 22.4862 12.0745 22.4862H10.3822C9.70897 22.4862 9.0633 22.2187 8.58725 21.7427C8.11119 21.2666 7.84375 20.621 7.84375 19.9477V18.2554C7.84375 17.5822 8.11119 16.9365 8.58725 16.4604C9.0633 15.9844 9.70897 15.7169 10.3822 15.7169C10.3822 13.6972 11.1845 11.7602 12.6127 10.3321C14.0409 8.9039 15.9779 8.10156 17.9976 8.10156Z" fill="#00A652"/>
</svg>
