<svg width="38" height="38" viewBox="0 0 38 38" fill="none" xmlns="http://www.w3.org/2000/svg">
<circle cx="19" cy="19" r="19" fill="#151515"/>
<path d="M12 12.5C12 12.1022 12.158 11.7206 12.4393 11.4393C12.7206 11.158 13.1022 11 13.5 11H20.379C20.7767 11.0004 21.158 11.1586 21.439 11.44L25.561 15.56C25.7004 15.6995 25.8109 15.8651 25.8862 16.0473C25.9616 16.2295 26.0002 16.4248 26 16.622V25.5C26 25.8978 25.842 26.2794 25.5607 26.5607C25.2794 26.842 24.8978 27 24.5 27H13.5C13.1022 27 12.7206 26.842 12.4393 26.5607C12.158 26.2794 12 25.8978 12 25.5V12.5Z" fill="#00A652"/>
</svg>
