<svg width="38" height="38" viewBox="0 0 38 38" fill="none" xmlns="http://www.w3.org/2000/svg">
<circle cx="19" cy="19" r="19" fill="#151515"/>
<g clip-path="url(#clip0_40_2558)">
<path d="M19.9867 20.4964L21.2826 19.2004C21.4706 19.0125 21.7254 18.907 21.9912 18.907C22.257 18.907 22.5118 19.0125 22.6998 19.2004L25.7066 22.2072C25.8944 22.3951 26 22.65 26 22.9158C26 23.1816 25.8944 23.4364 25.7066 23.6244L24.4718 24.8592C24.146 25.1849 23.7593 25.4434 23.3337 25.6197C22.9081 25.796 22.4519 25.8867 21.9912 25.8867C21.5305 25.8867 21.0743 25.796 20.6487 25.6197C20.2231 25.4434 19.8364 25.1849 19.5106 24.8592L11.0276 16.3761C10.7018 16.0503 10.4434 15.6636 10.2671 15.238C10.0907 14.8124 10 14.3562 10 13.8955C10 13.4348 10.0907 12.9786 10.2671 12.553C10.4434 12.1274 10.7018 11.7407 11.0276 11.4149L12.2623 10.1802C12.4503 9.99227 12.7052 9.88672 12.9709 9.88672C13.2367 9.88672 13.4916 9.99227 13.6795 10.1802L16.6863 13.1869C16.8742 13.3749 16.9797 13.6298 16.9797 13.8955C16.9797 14.1613 16.8742 14.4162 16.6863 14.6041L15.3904 15.9L19.9867 20.4964Z" fill="#00A652"/>
</g>
<defs>
<clipPath id="clip0_40_2558">
<rect width="18" height="18" fill="white" transform="translate(10 10)"/>
</clipPath>
</defs>
</svg>
