<svg width="49" height="49" viewBox="0 0 49 49" fill="none" xmlns="http://www.w3.org/2000/svg">
<circle cx="24.25" cy="24.3711" r="24" fill="#151515"/>
<path d="M18.9424 25.173C21.9057 25.173 24.3379 22.7403 24.3379 19.7666C24.3379 16.8137 21.9057 14.3711 18.9424 14.3711C15.9895 14.3711 13.5469 16.8137 13.5469 19.7666C13.5469 22.7403 15.9895 25.173 18.9424 25.173ZM26.8762 17.6847H34.1306C34.5874 17.6847 34.9481 17.3344 34.9481 16.8776C34.9481 16.4312 34.5869 16.0809 34.1306 16.0809H26.8762C26.4194 16.0809 26.0686 16.4312 26.0686 16.8776C26.0686 17.3344 26.4194 17.6847 26.8762 17.6847ZM16.2129 20.4251C15.8622 20.4251 15.5649 20.1169 15.5649 19.7666C15.5649 19.4267 15.8622 19.1186 16.2129 19.1186H21.6828C22.0331 19.1186 22.3308 19.4267 22.3308 19.7666C22.3308 20.1169 22.0331 20.4251 21.6828 20.4251H16.2129ZM26.8762 23.2502H34.1315C34.5883 23.2502 34.949 22.8999 34.949 22.4435C34.949 21.9971 34.5879 21.6464 34.1315 21.6464H26.8762C26.4194 21.6464 26.0686 21.9971 26.0686 22.4431C26.0686 22.8999 26.4194 23.2502 26.8762 23.2502ZM14.3545 28.8165H34.131C34.2379 28.8177 34.3439 28.7976 34.443 28.7576C34.5421 28.7175 34.6322 28.6582 34.7083 28.5832C34.7843 28.5081 34.8448 28.4187 34.8861 28.3201C34.9274 28.2216 34.9488 28.1158 34.949 28.009C34.949 27.563 34.5879 27.2123 34.1315 27.2123H14.354C13.8972 27.2123 13.5469 27.563 13.5469 28.009C13.5469 28.4553 13.8972 28.8165 14.3536 28.8165M14.3536 34.3711H34.1301C34.5869 34.3711 34.9481 34.0208 34.9481 33.5749C34.9481 33.1285 34.5869 32.7673 34.1306 32.7673H14.354C14.2477 32.7664 14.1423 32.7867 14.044 32.8269C13.9456 32.8672 13.8563 32.9267 13.7811 33.0018C13.706 33.077 13.6466 33.1664 13.6064 33.2648C13.5662 33.3632 13.5459 33.4686 13.5469 33.5749C13.5469 34.0208 13.8972 34.3711 14.3536 34.3711Z" fill="#00A652"/>
</svg>
