<svg width="48" height="49" viewBox="0 0 48 49" fill="none" xmlns="http://www.w3.org/2000/svg">
<circle cx="24" cy="24.5" r="24" fill="#151515"/>
<g clip-path="url(#clip0_40_3041)">
<path d="M24 12C30.9037 12 36.5 17.5963 36.5 24.5C36.5 31.4037 30.9037 37 24 37C17.0963 37 11.5 31.4037 11.5 24.5C11.5 17.5963 17.0963 12 24 12ZM22.8375 18.9762C22.6063 18.9769 22.3848 19.069 22.2213 19.2325C22.0578 19.396 21.9657 19.6176 21.965 19.8487V26.825C21.965 27.3075 22.355 27.6975 22.8375 27.6975H29.8137C29.931 27.7019 30.048 27.6827 30.1576 27.6409C30.2673 27.599 30.3674 27.5355 30.4519 27.4541C30.5365 27.3727 30.6037 27.2751 30.6497 27.1671C30.6956 27.0591 30.7193 26.943 30.7193 26.8256C30.7193 26.7083 30.6956 26.5921 30.6497 26.4841C30.6037 26.3761 30.5365 26.2785 30.4519 26.1971C30.3674 26.1157 30.2673 26.0522 30.1576 26.0104C30.048 25.9686 29.931 25.9493 29.8137 25.9538H23.7087V19.8487C23.7081 19.6178 23.6161 19.3964 23.4529 19.233C23.2897 19.0695 23.0685 18.9772 22.8375 18.9762Z" fill="#00A652"/>
</g>
<defs>
<clipPath id="clip0_40_3041">
<rect width="25" height="25" fill="white" transform="translate(11.5 12)"/>
</clipPath>
</defs>
</svg>
