<svg width="48" height="49" viewBox="0 0 48 49" fill="none" xmlns="http://www.w3.org/2000/svg">
<circle cx="24" cy="24.8711" r="24" fill="#151515"/>
<path d="M17.5093 15.2461V16.5352H25.7424L26.4584 15.2461H17.5093ZM17.6727 17.3086C17.8579 17.7769 17.4428 18.5858 17.2742 18.9667C16.8013 20.0281 16.0398 21.4418 15.4686 23.0672C14.8976 24.6926 14.5142 26.5418 14.8176 28.4864C15.1211 30.4309 16.1204 32.4548 18.2362 34.3944L18.3471 34.4961H29.6479L29.7588 34.3944C31.8747 32.4548 32.8739 30.4309 33.1774 28.4864C33.4809 26.5418 33.0975 24.6926 32.5264 23.0671C31.9553 21.4418 31.1938 20.0281 30.7209 18.9666C30.5286 18.535 30.3882 18.1609 30.3207 17.8764L27.093 19.3921L29.8017 20.7797L28.2433 24.1509L30.904 24.9762L24.3074 30.9131L27.1422 25.9237L24.6415 25.7874L26.6926 21.6489L23.5468 20.4879L25.3128 17.3086H17.6727Z" fill="#00A652"/>
</svg>
