<svg width="49" height="49" viewBox="0 0 49 49" fill="none" xmlns="http://www.w3.org/2000/svg">
<circle cx="24.25" cy="24.3379" r="24" fill="#151515"/>
<path d="M27.1015 35.2711C33.198 35.2711 38.25 30.2191 38.25 24.1231C38.25 18.0381 33.187 12.9746 27.09 12.9746C21.477 12.9746 16.728 17.2971 16.0545 22.7421C19.546 22.7981 22.476 25.3581 23.0825 28.7036C24.2725 28.1986 25.6535 27.9066 27.1015 27.9066C29.8635 27.9066 32.2995 28.9391 33.7815 30.5336C32.0975 32.2736 29.729 33.3736 27.0905 33.3736C25.541 33.3736 24.0815 32.9811 22.8015 32.3186C22.6034 32.9176 22.3198 33.4848 21.9595 34.0026C23.5205 34.8111 25.2605 35.2711 27.1015 35.2711ZM27.0905 26.0201C24.946 26.0201 23.318 24.1451 23.318 21.8101C23.318 19.5986 24.9795 17.6786 27.0905 17.6786C29.2125 17.6786 30.8855 19.5986 30.874 21.8101C30.874 24.1451 29.246 26.0201 27.0905 26.0201ZM15.9535 35.6981C19.0855 35.6981 21.6565 33.1381 21.6565 29.9946C21.6565 26.8736 19.0855 24.2911 15.9535 24.2911C12.832 24.2911 10.25 26.8736 10.25 29.9951C10.25 33.1386 12.832 35.6981 15.9535 35.6981ZM13.068 30.6796C12.6975 30.6796 12.383 30.3541 12.383 29.9946C12.383 29.6351 12.6975 29.3096 13.068 29.3096H18.8385C19.2205 29.3096 19.5345 29.6351 19.5345 29.9946C19.5345 30.3536 19.2205 30.6796 18.8385 30.6796H13.068Z" fill="#00A652"/>
</svg>
