<svg width="48" height="49" viewBox="0 0 48 49" fill="none" xmlns="http://www.w3.org/2000/svg">
<circle cx="24" cy="24.4941" r="24" fill="#151515"/>
<path d="M27.6276 25.7038V16.0371C27.6276 15.0757 27.2457 14.1537 26.5659 13.4738C25.886 12.794 24.964 12.4121 24.0026 12.4121C23.0412 12.4121 22.1192 12.794 21.4393 13.4738C20.7595 14.1537 20.3776 15.0757 20.3776 16.0371V25.7038C19.3632 26.4646 18.6138 27.5253 18.2358 28.7357C17.8577 29.946 17.87 31.2447 18.271 32.4477C18.672 33.6506 19.4413 34.6969 20.47 35.4384C21.4987 36.1798 22.7346 36.5788 24.0026 36.5788C25.2706 36.5788 26.5065 36.1798 27.5352 35.4384C28.5639 34.6969 29.3332 33.6506 29.7342 32.4477C30.1352 31.2447 30.1475 29.946 29.7695 28.7357C29.3914 27.5253 28.642 26.4646 27.6276 25.7038ZM24.0026 14.8288C24.3231 14.8288 24.6304 14.9561 24.857 15.1827C25.0836 15.4093 25.2109 15.7166 25.2109 16.0371V19.6621H22.7943V16.0371C22.7943 15.7166 22.9216 15.4093 23.1482 15.1827C23.3748 14.9561 23.6821 14.8288 24.0026 14.8288Z" fill="#00AB67"/>
</svg>
