<svg width="16" height="16" viewBox="0 0 16 16" fill="none" xmlns="http://www.w3.org/2000/svg">
<g clip-path="url(#clip0_66_6775)">
<path d="M9.99941 10.5858L11.2924 9.29279C11.4799 9.10532 11.7342 9 11.9994 9C12.2646 9 12.5189 9.10532 12.7064 9.29279L15.7064 12.2928C15.8939 12.4803 15.9992 12.7346 15.9992 12.9998C15.9992 13.265 15.8939 13.5193 15.7064 13.7068L14.4744 14.9388C14.1494 15.2638 13.7635 15.5217 13.3389 15.6976C12.9142 15.8735 12.4591 15.964 11.9994 15.964C11.5398 15.964 11.0846 15.8735 10.6599 15.6976C10.2353 15.5217 9.84942 15.2638 9.52441 14.9388L1.06041 6.47479C0.735366 6.14978 0.477526 5.76392 0.301612 5.33926C0.125698 4.9146 0.0351563 4.45944 0.0351562 3.99979C0.0351563 3.54013 0.125698 3.08497 0.301612 2.66031C0.477526 2.23565 0.735366 1.8498 1.06041 1.52479L2.29241 0.292786C2.47994 0.105315 2.73424 0 2.99941 0C3.26457 0 3.51888 0.105315 3.70641 0.292786L6.70641 3.29279C6.89388 3.48031 6.9992 3.73462 6.9992 3.99979C6.9992 4.26495 6.89388 4.51926 6.70641 4.70679L5.41341 5.99979L9.99941 10.5858Z" fill="white"/>
</g>
<defs>
<clipPath id="clip0_66_6775">
<rect width="16" height="16" fill="white"/>
</clipPath>
</defs>
</svg>
