<svg width="37" height="36" viewBox="0 0 37 36" fill="none" xmlns="http://www.w3.org/2000/svg">
<defs>
  <mask id="phoneMask">
    <rect width="37" height="36" fill="white"/>
    <path d="M24.2304 22.1524C25.4214 23.2394 25.7874 23.9764 26.0084 24.3904C26.0583 24.4851 26.0766 24.5934 26.0604 24.6992C26.0441 24.8051 25.9944 24.9029 25.9184 24.9784C24.8404 26.0684 24.1344 26.8484 23.1054 26.9704C20.8054 27.2604 17.3814 25.4354 14.0134 22.0534C10.6324 18.6864 8.8064 15.2624 9.0964 12.9634C9.2184 11.9334 10.0014 11.2264 11.0934 10.1474C11.1674 10.0718 11.2639 10.0221 11.3684 10.0059C11.473 9.9897 11.58 10.0077 11.6734 10.0574C12.0854 10.2784 12.8244 10.6424 13.9134 11.8374C15.0254 13.0614 15.3794 13.9814 15.4504 14.5054C15.4559 14.6013 15.4404 14.6972 15.405 14.7865C15.3696 14.8758 15.3151 14.9563 15.2454 15.0224C14.8344 15.4324 13.8934 16.2874 13.7654 16.7264C13.5964 17.2644 13.9074 17.9294 14.4524 18.7284C14.7924 19.2094 15.2594 19.7614 15.7824 20.2854C16.3054 20.8084 16.8574 21.2754 17.3384 21.6154C18.1384 22.1594 18.8034 22.4704 19.3414 22.3014C19.7804 22.1734 20.6354 21.2334 21.0464 20.8234C21.1118 20.753 21.1921 20.6981 21.2813 20.6625C21.3705 20.6268 21.4665 20.6114 21.5624 20.6174C22.0864 20.6874 23.0064 21.0424 24.2304 22.1524ZM19.9634 10.2874C20.4554 10.2874 20.8604 10.6944 20.8604 11.1874L20.8674 13.9564L25.5384 9.26437C25.6212 9.18062 25.7197 9.11413 25.8284 9.06875C25.9371 9.02337 26.0536 9 26.1714 9C26.2892 9 26.4057 9.02337 26.5144 9.06875C26.6231 9.11413 26.7216 9.18062 26.8044 9.26437C26.9723 9.43304 27.0666 9.66136 27.0666 9.89937C27.0666 10.1374 26.9723 10.3657 26.8044 10.5344L22.1404 15.2054H24.8604C25.3514 15.2054 25.7564 15.6124 25.7564 16.1064C25.7569 16.2236 25.7343 16.3397 25.6898 16.4482C25.6453 16.5566 25.5798 16.6552 25.4971 16.7383C25.4144 16.8214 25.3162 16.8873 25.2079 16.9322C25.0997 16.9772 24.9836 17.0004 24.8664 17.0004H20.0924C19.8196 16.9993 19.5583 16.8901 19.366 16.6966C19.1736 16.5031 19.0659 16.2412 19.0664 15.9684L19.0734 11.1814C19.0734 10.6874 19.4784 10.2804 19.9634 10.2874Z" fill="black"/>
  </mask>
</defs>
<circle cx="18.0664" cy="18" r="18" fill="white" mask="url(#phoneMask)"/>
</svg>
