<svg width="22" height="18" viewBox="0 0 22 18" fill="none" xmlns="http://www.w3.org/2000/svg">
<path d="M21.3735 0.805851C21.3933 0.686934 21.3817 0.564917 21.3398 0.451873C21.2979 0.338829 21.2273 0.238676 21.1348 0.161324C21.0423 0.0839722 20.9313 0.0321024 20.8126 0.0108471C20.694 -0.0104082 20.5718 -0.000312174 20.4583 0.040136L1.07307 6.96342C0.945293 7.00898 0.833716 7.09108 0.752201 7.19952C0.670686 7.30796 0.622826 7.43796 0.614566 7.57337C0.606306 7.70878 0.638009 7.84363 0.705739 7.96117C0.773468 8.07872 0.874238 8.17377 0.995531 8.23453L6.53416 11.0038C6.64331 11.0585 6.76496 11.0833 6.88679 11.0757C7.00862 11.0682 7.12629 11.0286 7.22787 10.9609L11.8249 7.89529L9.07362 11.3375C9.01374 11.4125 8.97009 11.499 8.94542 11.5917C8.92076 11.6844 8.91562 11.7812 8.93033 11.8759C8.94504 11.9707 8.97928 12.0614 9.03088 12.1422C9.08248 12.2231 9.15031 12.2923 9.23008 12.3456L17.538 17.8842C17.6342 17.9482 17.7449 17.987 17.86 17.9973C17.9751 18.0075 18.0909 17.9888 18.1968 17.9428C18.3028 17.8968 18.3956 17.8251 18.4668 17.7341C18.5379 17.643 18.5852 17.5357 18.6042 17.4217L21.3735 0.805851Z" fill="white"/>
</svg>
