<svg width="38" height="38" viewBox="0 0 38 38" fill="none" xmlns="http://www.w3.org/2000/svg">
<circle cx="19" cy="19" r="19" fill="#151515"/>
<path d="M23.904 18.9278C23.8108 19.0222 23.6839 19.0758 23.5511 19.0772L19.3478 19.2265C19.2739 19.2295 19.2003 19.2172 19.1314 19.1904C19.0626 19.1636 19.0001 19.1228 18.9478 19.0707C18.8955 19.0186 18.8547 18.9563 18.8278 18.8876C18.8009 18.8189 18.7886 18.7455 18.7916 18.6718L18.9413 14.4797C18.9427 14.3473 18.9965 14.2207 19.0911 14.1277L22.1607 11.0663H12.5348C12.3929 11.0663 12.2569 11.1225 12.1566 11.2225C12.0563 11.3225 12 11.4582 12 11.5996V25.4667C12 25.6081 12.0563 25.7438 12.1566 25.8438C12.2569 25.9438 12.3929 26 12.5348 26H26.4389C26.5807 26 26.7167 25.9438 26.817 25.8438C26.9173 25.7438 26.9736 25.6081 26.9736 25.4667V15.8664L23.904 18.9278ZM22.8987 17.9251L20.5564 17.9998C20.4154 17.9971 20.281 17.94 20.1813 17.8406C20.0815 17.7411 20.0243 17.6071 20.0216 17.4665L20.0965 15.1624C20.1056 15.0212 20.1665 14.8883 20.2676 14.7891L24.8345 10.1596C24.9386 10.0573 25.0788 10 25.2249 10C25.371 10 25.5113 10.0573 25.6153 10.1596L27.84 12.3783C27.9425 12.4821 28 12.622 28 12.7677C28 12.9134 27.9425 13.0532 27.84 13.157L23.273 17.7545C23.1735 17.8553 23.0402 17.916 22.8987 17.9251Z" fill="#00A652"/>
</svg>
