<svg width="26" height="26" viewBox="0 0 26 26" fill="none" xmlns="http://www.w3.org/2000/svg">
<path d="M12.9997 1.35547C6.56198 1.36251 1.34843 6.58688 1.35548 13.0246C1.35712 14.9782 1.85018 16.8999 2.78927 18.613L1.89552 24.1055L7.38802 23.2117C13.0268 26.3046 20.1064 24.2414 23.1993 18.6021C26.2922 12.9628 24.2295 5.88434 18.5902 2.79089C16.8768 1.85097 14.9539 1.35734 12.9997 1.35547ZM7.17677 6.64755H10.3509C10.4946 6.64755 10.6324 6.70462 10.734 6.8062C10.8355 6.90778 10.8926 7.04556 10.8926 7.18922C10.8748 7.91159 10.9962 8.63063 11.2501 9.30714C11.3594 9.5336 11.3835 9.79188 11.3178 10.0346C11.2522 10.2774 11.1012 10.4883 10.8926 10.6288L9.78218 11.7121C10.2745 12.6736 10.9183 13.5497 11.6889 14.3067C12.4398 15.0898 13.3123 15.7465 14.2726 16.2513L15.3559 15.1409C15.8976 14.5992 16.1468 14.5992 16.6776 14.7834C17.3541 15.0373 18.0732 15.1587 18.7955 15.1409C18.9371 15.1475 19.071 15.2067 19.1712 15.3069C19.2714 15.407 19.3306 15.541 19.3372 15.6826V18.8567C19.3306 18.9983 19.2714 19.1322 19.1712 19.2324C19.071 19.3326 18.9371 19.3918 18.7955 19.3984C15.6092 19.2596 12.5889 17.9387 10.3239 15.6934C8.07505 13.4307 6.75353 10.409 6.61885 7.22172C6.62014 7.07262 6.67884 6.92976 6.78275 6.82283C6.88665 6.7159 7.02777 6.65312 7.17677 6.64755Z" fill="white"/>
</svg>
