<svg width="40" height="39" viewBox="0 0 40 39" fill="none" xmlns="http://www.w3.org/2000/svg">
<circle cx="20.0625" cy="19.2617" r="19" fill="#151515"/>
<g clip-path="url(#clip0_40_14980)">
<path d="M14.9882 19.2617C17.0592 19.2617 18.7381 17.5828 18.7381 15.5117C18.7381 13.4406 17.0592 11.7617 14.9882 11.7617C12.9172 11.7617 11.2383 13.4407 11.2383 15.5117C11.2383 17.5828 12.9172 19.2617 14.9882 19.2617Z" fill="#00A652"/>
<path d="M14.9903 20.5119C13.451 20.5015 11.962 21.0595 10.8087 22.0791C9.65542 23.0986 8.91894 24.5079 8.74041 26.0369C8.72798 26.1266 8.7348 26.2179 8.76043 26.3048C8.78605 26.3916 8.82989 26.472 8.88902 26.5406C8.94816 26.6092 9.02123 26.6644 9.10337 26.7026C9.18551 26.7407 9.27484 26.7609 9.3654 26.7619L20.5401 26.7619C20.6307 26.7609 20.72 26.7407 20.8021 26.7026C20.8843 26.6644 20.9574 26.6092 21.0165 26.5406C21.0756 26.472 21.1195 26.3916 21.1451 26.3048C21.1707 26.2179 21.1775 26.1266 21.1651 26.0369C20.9881 24.5207 20.2623 23.1218 19.1248 22.104C17.9873 21.0862 16.5166 20.5199 14.9903 20.5119Z" fill="#00A652"/>
</g>
<g clip-path="url(#clip1_40_14980)">
<path d="M25.1366 19.2617C27.2076 19.2617 28.8865 17.5828 28.8865 15.5117C28.8865 13.4406 27.2076 11.7617 25.1366 11.7617C23.0656 11.7617 21.3867 13.4407 21.3867 15.5117C21.3867 17.5828 23.0656 19.2617 25.1366 19.2617Z" fill="#00A652"/>
<path d="M25.1387 20.5119C23.5994 20.5015 22.1104 21.0595 20.9572 22.0791C19.8039 23.0986 19.0674 24.5079 18.8889 26.0369C18.8764 26.1266 18.8832 26.2179 18.9089 26.3048C18.9345 26.3916 18.9783 26.472 19.0375 26.5406C19.0966 26.6092 19.1697 26.6644 19.2518 26.7026C19.3339 26.7407 19.4233 26.7609 19.5138 26.7619L30.6885 26.7619C30.7791 26.7609 30.8684 26.7407 30.9506 26.7026C31.0327 26.6644 31.1058 26.6092 31.1649 26.5406C31.2241 26.472 31.2679 26.3916 31.2935 26.3048C31.3191 26.2179 31.326 26.1266 31.3135 26.0369C31.1365 24.5207 30.4108 23.1218 29.2732 22.104C28.1357 21.0862 26.665 20.5199 25.1387 20.5119Z" fill="#00A652"/>
</g>
<circle cx="19.9219" cy="19" r="19" fill="#151515"/>
<path d="M12.9219 12.5C12.9219 12.1022 13.0799 11.7206 13.3612 11.4393C13.6425 11.158 14.0241 11 14.4219 11H21.3009C21.6986 11.0004 22.0798 11.1586 22.3609 11.44L26.4829 15.56C26.6223 15.6995 26.7328 15.8651 26.8081 16.0473C26.8834 16.2295 26.9221 16.4248 26.9219 16.622V25.5C26.9219 25.8978 26.7638 26.2794 26.4825 26.5607C26.2012 26.842 25.8197 27 25.4219 27H14.4219C14.0241 27 13.6425 26.842 13.3612 26.5607C13.0799 26.2794 12.9219 25.8978 12.9219 25.5V12.5Z" fill="#00A652"/>
<defs>
<clipPath id="clip0_40_14980">
<rect width="14.9996" height="15" fill="white" transform="translate(7.48828 11.7617)"/>
</clipPath>
<clipPath id="clip1_40_14980">
<rect width="14.9996" height="15" fill="white" transform="translate(17.6367 11.7617)"/>
</clipPath>
</defs>
</svg>
