<svg width="39" height="38" viewBox="0 0 39 38" fill="none" xmlns="http://www.w3.org/2000/svg">
<circle cx="19.0625" cy="19" r="19" fill="#151515"/>
<g clip-path="url(#clip0_40_12328)">
<path d="M13.9882 19C16.0592 19 17.7381 17.3211 17.7381 15.25C17.7381 13.1789 16.0592 11.5 13.9882 11.5C11.9172 11.5 10.2383 13.1789 10.2383 15.25C10.2383 17.3211 11.9172 19 13.9882 19Z" fill="#00A652"/>
<path d="M13.9903 20.2501C12.451 20.2398 10.962 20.7978 9.80871 21.8173C8.65542 22.8369 7.91894 24.2462 7.74041 25.7751C7.72798 25.8649 7.7348 25.9562 7.76043 26.043C7.78605 26.1299 7.82989 26.2103 7.88902 26.2789C7.94816 26.3475 8.02123 26.4027 8.10337 26.4409C8.18551 26.479 8.27484 26.4992 8.3654 26.5001L19.5401 26.5001C19.6307 26.4992 19.72 26.479 19.8021 26.4409C19.8843 26.4027 19.9574 26.3475 20.0165 26.2789C20.0756 26.2103 20.1195 26.1299 20.1451 26.043C20.1707 25.9562 20.1775 25.8649 20.1651 25.7751C19.9881 24.259 19.2623 22.8601 18.1248 21.8423C16.9873 20.8245 15.5166 20.2582 13.9903 20.2501Z" fill="#00A652"/>
</g>
<g clip-path="url(#clip1_40_12328)">
<path d="M24.1366 19C26.2076 19 27.8865 17.3211 27.8865 15.25C27.8865 13.1789 26.2076 11.5 24.1366 11.5C22.0656 11.5 20.3867 13.1789 20.3867 15.25C20.3867 17.3211 22.0656 19 24.1366 19Z" fill="#00A652"/>
<path d="M24.1387 20.2501C22.5994 20.2398 21.1104 20.7978 19.9572 21.8173C18.8039 22.8369 18.0674 24.2462 17.8889 25.7751C17.8764 25.8649 17.8832 25.9562 17.9089 26.043C17.9345 26.1299 17.9783 26.2103 18.0375 26.2789C18.0966 26.3475 18.1697 26.4027 18.2518 26.4409C18.3339 26.479 18.4233 26.4992 18.5138 26.5001L29.6885 26.5001C29.7791 26.4992 29.8684 26.479 29.9506 26.4409C30.0327 26.4027 30.1058 26.3475 30.1649 26.2789C30.2241 26.2103 30.2679 26.1299 30.2935 26.043C30.3191 25.9562 30.326 25.8649 30.3135 25.7751C30.1365 24.259 29.4108 22.8601 28.2732 21.8423C27.1357 20.8245 25.665 20.2582 24.1387 20.2501Z" fill="#00A652"/>
</g>
<defs>
<clipPath id="clip0_40_12328">
<rect width="14.9996" height="15" fill="white" transform="translate(6.48828 11.5)"/>
</clipPath>
<clipPath id="clip1_40_12328">
<rect width="14.9996" height="15" fill="white" transform="translate(16.6367 11.5)"/>
</clipPath>
</defs>
</svg>
