<svg width="39" height="38" viewBox="0 0 39 38" fill="none" xmlns="http://www.w3.org/2000/svg">
<circle cx="19.9219" cy="19" r="19" fill="#151515"/>
<path d="M19.0561 11.1621L26.8936 12.2815L28.013 20.119L20.736 27.396C20.6625 27.4696 20.5751 27.528 20.479 27.5679C20.3829 27.6077 20.2799 27.6282 20.1759 27.6282C20.0718 27.6282 19.9688 27.6077 19.8727 27.5679C19.7766 27.528 19.6893 27.4696 19.6158 27.396L11.7783 19.5585C11.6301 19.4101 11.5469 19.2089 11.5469 18.9992C11.5469 18.7895 11.6301 18.5883 11.7783 18.4399L19.0561 11.1621ZM21.2957 17.8802C21.4427 18.0272 21.6173 18.1438 21.8094 18.2233C22.0015 18.3029 22.2075 18.3438 22.4154 18.3438C22.6233 18.3437 22.8292 18.3027 23.0213 18.2231C23.2134 18.1435 23.3879 18.0269 23.5349 17.8798C23.6819 17.7327 23.7985 17.5582 23.8781 17.3661C23.9576 17.1739 23.9985 16.968 23.9985 16.7601C23.9984 16.5522 23.9574 16.3463 23.8778 16.1542C23.7982 15.9621 23.6816 15.7876 23.5345 15.6406C23.2375 15.3437 22.8348 15.1769 22.4148 15.177C21.9949 15.1771 21.5922 15.344 21.2953 15.641C20.9984 15.938 20.8317 16.3407 20.8317 16.7607C20.8318 17.1806 20.9987 17.5833 21.2957 17.8802Z" fill="#00A652"/>
</svg>
