<svg width="39" height="38" viewBox="0 0 39 38" fill="none" xmlns="http://www.w3.org/2000/svg">
<circle cx="19.9219" cy="19" r="19" fill="#151515"/>
<g clip-path="url(#clip0_40_13230)">
<path fill-rule="evenodd" clip-rule="evenodd" d="M11.4219 12.625C11.4219 11.452 12.3739 10.5 13.5469 10.5H26.2969C27.4699 10.5 28.4219 11.452 28.4219 12.625V16.5799C28.4212 18.9966 27.6461 21.3494 26.2103 23.2933C24.7745 25.2371 22.7536 26.6698 20.444 27.381C20.1039 27.4866 19.7398 27.4866 19.3997 27.381C17.0901 26.6698 15.0692 25.2371 13.6334 23.2933C12.1977 21.3494 11.4226 18.9966 11.4219 16.5799V12.625ZM19.9219 18.3929C20.6465 18.3929 21.3414 18.105 21.8538 17.5926C22.3662 17.0803 22.654 16.3853 22.654 15.6607C22.654 14.9361 22.3662 14.2412 21.8538 13.7288C21.3414 13.2164 20.6465 12.9286 19.9219 12.9286C19.1973 12.9286 18.5023 13.2164 17.99 13.7288C17.4776 14.2412 17.1897 14.9361 17.1897 15.6607C17.1897 16.3853 17.4776 17.0803 17.99 17.5926C18.5023 18.105 19.1973 18.3929 19.9219 18.3929ZM24.9636 21.9058C24.3367 21.1841 23.5622 20.6055 22.6924 20.2089C21.8226 19.8124 20.8778 19.6072 19.9219 19.6071C18.966 19.6072 18.0212 19.8124 17.1514 20.2089C16.2816 20.6055 15.5071 21.1841 14.8802 21.9058C16.0883 23.6857 17.8664 25.0013 19.9219 25.6361C21.9773 25.0013 23.7554 23.6857 24.9636 21.9058Z" fill="#00A652"/>
</g>
<defs>
<clipPath id="clip0_40_13230">
<rect width="17" height="17" fill="white" transform="translate(11.4219 10.5)"/>
</clipPath>
</defs>
</svg>
