<svg width="39" height="38" viewBox="0 0 39 38" fill="none" xmlns="http://www.w3.org/2000/svg">
<circle cx="19.9219" cy="19" r="19" fill="#151515"/>
<mask id="mask0_40_13210" style="mask-type:luminance" maskUnits="userSpaceOnUse" x="11" y="10" width="18" height="18">
<path d="M12.4023 12.6667C12.4023 12.4567 12.4858 12.2553 12.6342 12.1069C12.7827 11.9584 12.984 11.875 13.194 11.875H17.944L19.9232 14.25H26.6523C26.8623 14.25 27.0637 14.3334 27.2121 14.4819C27.3606 14.6303 27.444 14.8317 27.444 15.0417V25.3333C27.444 25.5433 27.3606 25.7447 27.2121 25.8931C27.0637 26.0416 26.8623 26.125 26.6523 26.125H13.194C12.984 26.125 12.7827 26.0416 12.6342 25.8931C12.4858 25.7447 12.4023 25.5433 12.4023 25.3333V12.6667Z" fill="white" stroke="white" stroke-width="2" stroke-linejoin="round"/>
<path d="M17.5469 18.5243C17.5469 18.155 19.9219 17.416 19.9219 17.416C19.9219 17.416 22.2969 18.155 22.2969 18.5243C22.2969 21.48 19.9219 22.9577 19.9219 22.9577C19.9219 22.9577 17.5469 21.48 17.5469 18.5243Z" fill="black" stroke="black" stroke-width="2" stroke-linecap="round" stroke-linejoin="round"/>
</mask>
<g mask="url(#mask0_40_13210)">
<path d="M10.4219 9.5H29.4219V28.5H10.4219V9.5Z" fill="#00A652"/>
</g>
</svg>
