<svg width="39" height="38" viewBox="0 0 39 38" fill="none" xmlns="http://www.w3.org/2000/svg">
<circle cx="19.4844" cy="19" r="19" fill="#151515"/>
<g clip-path="url(#clip0_40_13234)">
<path d="M22.7763 22.7317V20.2732L21.108 17.222C20.8153 17.3683 20.5812 17.5805 20.4056 17.8585C20.23 18.1366 20.1421 18.4439 20.1421 18.7805V25.8049L21.3934 28H28.2641L27.3861 17.0244L21.2397 10L20.9543 10.2854C20.53 10.7098 20.2777 11.2073 20.1975 11.778C20.1173 12.3488 20.2232 12.8902 20.5153 13.4024L24.0934 19.922V22.7317H22.7763ZM14.8739 22.7317V19.922L18.4519 13.4024C18.7446 12.8902 18.8435 12.3488 18.7487 11.778C18.6539 11.2073 18.4013 10.7098 17.9909 10.2854L17.7275 10L11.5812 17.0244L10.7031 28H17.5739L18.8251 25.8049V18.7805C18.8251 18.4439 18.7338 18.1366 18.5511 17.8585C18.3685 17.5805 18.1379 17.3683 17.8592 17.222L16.1909 20.2732V22.7317H14.8739Z" fill="#00A652"/>
</g>
<defs>
<clipPath id="clip0_40_13234">
<rect width="24" height="24" fill="white" transform="translate(4.75 7)"/>
</clipPath>
</defs>
</svg>
