<svg width="39" height="38" viewBox="0 0 39 38" fill="none" xmlns="http://www.w3.org/2000/svg">
<circle cx="19.9219" cy="19" r="19" fill="#151515"/>
<path fill-rule="evenodd" clip-rule="evenodd" d="M19.3919 9.152C19.5508 9.05267 19.7345 9 19.9219 9C20.1093 9 20.2929 9.05267 20.4519 9.152L27.3559 13.467L19.9219 17.84L12.4879 13.467L19.3919 9.152ZM10.9299 14.871C10.9244 14.9138 10.9218 14.9569 10.9219 15V23C10.9219 23.1696 10.965 23.3364 11.0472 23.4848C11.1295 23.6331 11.2481 23.7581 11.3919 23.848L18.9219 28.554V19.572L10.9299 14.871ZM20.9219 28.554L28.4519 23.848C28.5957 23.7581 28.7143 23.6331 28.7965 23.4848C28.8787 23.3364 28.9219 23.1696 28.9219 23V15C28.9219 14.9567 28.9192 14.9137 28.9139 14.871L20.9219 19.571V28.554Z" fill="#00A652"/>
</svg>
