<svg width="39" height="39" viewBox="0 0 39 39" fill="none" xmlns="http://www.w3.org/2000/svg">
<circle cx="19.9219" cy="19.6387" r="19" fill="#151515"/>
<g clip-path="url(#clip0_40_14976)">
<path d="M25.4232 25.5964C25.0585 25.5964 24.7088 25.4515 24.4509 25.1936C24.193 24.9358 24.0482 24.586 24.0482 24.2214C24.0482 23.8567 24.193 23.5069 24.4509 23.2491C24.7088 22.9912 25.0585 22.8464 25.4232 22.8464C25.7878 22.8464 26.1376 22.9912 26.3954 23.2491C26.6533 23.5069 26.7982 23.8567 26.7982 24.2214C26.7982 24.586 26.6533 24.9358 26.3954 25.1936C26.1376 25.4515 25.7878 25.5964 25.4232 25.5964ZM26.7982 17.3464L28.5948 19.638H24.5065V17.3464M14.4232 25.5964C14.0585 25.5964 13.7088 25.4515 13.4509 25.1936C13.193 24.9358 13.0482 24.586 13.0482 24.2214C13.0482 23.8567 13.193 23.5069 13.4509 23.2491C13.7088 22.9912 14.0585 22.8464 14.4232 22.8464C14.7878 22.8464 15.1376 22.9912 15.3954 23.2491C15.6533 23.5069 15.7982 23.8567 15.7982 24.2214C15.7982 24.586 15.6533 24.9358 15.3954 25.1936C15.1376 25.4515 14.7878 25.5964 14.4232 25.5964ZM27.2565 15.9714H24.5065V12.3047H11.6732C10.6557 12.3047 9.83984 13.1205 9.83984 14.138V24.2214H11.6732C11.6732 24.9507 11.9629 25.6502 12.4786 26.1659C12.9944 26.6816 13.6938 26.9714 14.4232 26.9714C15.1525 26.9714 15.852 26.6816 16.3677 26.1659C16.8834 25.6502 17.1732 24.9507 17.1732 24.2214H22.6732C22.6732 24.9507 22.9629 25.6502 23.4786 26.1659C23.9944 26.6816 24.6938 26.9714 25.4232 26.9714C26.1525 26.9714 26.852 26.6816 27.3677 26.1659C27.8834 25.6502 28.1732 24.9507 28.1732 24.2214H30.0065V19.638L27.2565 15.9714Z" fill="#00A652"/>
</g>
<defs>
<clipPath id="clip0_40_14976">
<rect width="22" height="22" fill="white" transform="translate(8.92188 8.63867)"/>
</clipPath>
</defs>
</svg>
