<svg width="39" height="39" viewBox="0 0 39 39" fill="none" xmlns="http://www.w3.org/2000/svg">
<circle cx="19.4609" cy="19.3203" r="19" fill="#151515"/>
<path d="M23.3984 21.0078C23.3984 23.2578 20.5859 24.9453 20.5859 26.6328H18.3359C18.3359 24.9453 15.5234 23.2578 15.5234 21.0078C15.5234 18.8366 17.2897 17.0703 19.4609 17.0703C21.6322 17.0703 23.3984 18.8366 23.3984 21.0078ZM20.5859 27.7578H18.3359V29.4453H20.5859V27.7578ZM27.3359 20.4453C27.3359 22.3353 26.6722 24.0566 25.5584 25.4178L27.1559 27.0153C28.0207 26.0057 28.6776 24.8353 29.0892 23.5713C29.5008 22.3073 29.6588 20.9745 29.5543 19.6493C29.4498 18.3241 29.0848 17.0325 28.4802 15.8487C27.8756 14.6648 27.0432 13.6119 26.0309 12.7503L24.4334 14.3478C25.3391 15.0853 26.0694 16.015 26.5715 17.0697C27.0735 18.1243 27.3346 19.2773 27.3359 20.4453ZM23.9609 11.4453L19.4609 6.94531V10.3203C16.7756 10.3203 14.2003 11.3871 12.3015 13.2859C10.4027 15.1847 9.33594 17.76 9.33594 20.4453C9.33594 22.9541 10.2584 25.2491 11.7659 27.0153L13.3634 25.4178C12.2114 24.0171 11.5829 22.259 11.5859 20.4453C11.5859 16.1028 15.1184 12.5703 19.4609 12.5703V15.9453L23.9609 11.4453Z" fill="#00A652"/>
</svg>
