<svg width="39" height="38" viewBox="0 0 39 38" fill="none" xmlns="http://www.w3.org/2000/svg">
<circle cx="19.9219" cy="19" r="19" fill="#151515"/>
<path d="M12.9219 12.5C12.9219 12.1022 13.0799 11.7206 13.3612 11.4393C13.6425 11.158 14.0241 11 14.4219 11H21.3009C21.6986 11.0004 22.0798 11.1586 22.3609 11.44L26.4829 15.56C26.6223 15.6995 26.7328 15.8651 26.8081 16.0473C26.8834 16.2295 26.9221 16.4248 26.9219 16.622V25.5C26.9219 25.8978 26.7638 26.2794 26.4825 26.5607C26.2012 26.842 25.8197 27 25.4219 27H14.4219C14.0241 27 13.6425 26.842 13.3612 26.5607C13.0799 26.2794 12.9219 25.8978 12.9219 25.5V12.5Z" fill="#00A652"/>
</svg>
