<svg width="39" height="39" viewBox="0 0 39 39" fill="none" xmlns="http://www.w3.org/2000/svg">
<circle cx="19.75" cy="19.1367" r="19" fill="#151515"/>
<path d="M26.448 16.1367H27.75V24.1367C27.75 24.4019 27.6446 24.6563 27.4571 24.8438C27.2696 25.0314 27.0152 25.1367 26.75 25.1367H15.75C15.4848 25.1367 15.2304 25.0314 15.0429 24.8438C14.8554 24.6563 14.75 24.4019 14.75 24.1367V11.1367C14.75 10.8715 14.8554 10.6171 15.0429 10.4296C15.2304 10.2421 15.4848 10.1367 15.75 10.1367H22.25V14.1367C22.25 14.5947 22.404 15.0167 22.663 15.3537L22.01 16.0267L19.856 18.2487L19.511 17.8857L18.823 17.1607L18.097 17.8497L16.647 19.2277L15.922 19.9157L16.612 20.6407L19.108 23.2697L19.826 24.0247L20.551 23.2767L24.881 18.8117L25.578 18.0937L24.86 17.3977L23.425 16.0047L23.329 15.9127C23.605 16.0557 23.918 16.1367 24.25 16.1367H26.448Z" fill="#00A652" stroke="#00A652" stroke-width="2" stroke-linecap="square"/>
</svg>
