<svg width="39" height="38" viewBox="0 0 39 38" fill="none" xmlns="http://www.w3.org/2000/svg">
<circle cx="19.9219" cy="19" r="19" fill="#151515"/>
<path d="M22.9219 20V12C22.9219 11.2044 22.6058 10.4413 22.0432 9.87868C21.4806 9.31607 20.7175 9 19.9219 9C19.1262 9 18.3632 9.31607 17.8006 9.87868C17.2379 10.4413 16.9219 11.2044 16.9219 12V20C16.0823 20.6296 15.4622 21.5075 15.1493 22.5092C14.8364 23.5108 14.8466 24.5856 15.1785 25.5811C15.5103 26.5767 16.147 27.4426 16.9983 28.0562C17.8497 28.6698 18.8725 29 19.9219 29C20.9713 29 21.9941 28.6698 22.8454 28.0562C23.6968 27.4426 24.3334 26.5767 24.6653 25.5811C24.9971 24.5856 25.0073 23.5108 24.6944 22.5092C24.3815 21.5075 23.7614 20.6296 22.9219 20ZM19.9219 11C20.1871 11 20.4414 11.1054 20.629 11.2929C20.8165 11.4804 20.9219 11.7348 20.9219 12V15H18.9219V12C18.9219 11.7348 19.0272 11.4804 19.2148 11.2929C19.4023 11.1054 19.6567 11 19.9219 11Z" fill="#00A652"/>
</svg>
